<?xml version="1.0" encoding="utf-8"?>
<!-- Generator: Adobe Illustrator 22.0.1, SVG Export Plug-In . SVG Version: 6.00 Build 0)  -->
<svg version="1.1" id="图层_1" xmlns="http://www.w3.org/2000/svg" xmlns:xlink="http://www.w3.org/1999/xlink" x="0px" y="0px"
	 viewBox="0 0 77 76" style="enable-background:new 0 0 77 76;" xml:space="preserve">
<style type="text/css">
	.st0{fill:url(#SVGID_1_);}
	.st1{fill:#FFFFFF;}
	.st2{fill:url(#SVGID_2_);}
</style>
<g>
	<linearGradient id="SVGID_1_" gradientUnits="userSpaceOnUse" x1="7.1894" y1="38" x2="69.8106" y2="38">
		<stop  offset="0" style="stop-color:#3E5AE5"/>
		<stop  offset="1" style="stop-color:#218FF0"/>
	</linearGradient>
	<path class="st0" d="M63.8,16.5L44.5,5.3c-3.7-2.1-8.3-2.1-12,0L13.2,16.5c-3.7,2.1-6,6.1-6,10.4v22.3c0,4.3,2.3,8.2,6,10.4
		l19.3,11.1c3.7,2.1,8.3,2.1,12,0l19.3-11.1c3.7-2.1,6-6.1,6-10.4V26.9C69.8,22.6,67.5,18.6,63.8,16.5z"/>
	<circle class="st1" cx="38.5" cy="38" r="23"/>
	<linearGradient id="SVGID_2_" gradientUnits="userSpaceOnUse" x1="23.7341" y1="35.6077" x2="55.1095" y2="35.6077">
		<stop  offset="0" style="stop-color:#3E5AE5"/>
		<stop  offset="1" style="stop-color:#218FF0"/>
	</linearGradient>
	<path class="st2" d="M54.8,51.3L54.8,51.3c-0.3,0.2-0.7,0.5-1.2,0.6c-0.5,0.2-1.2,0.3-2,0.3c-0.4,0-0.8,0-1.2-0.1
		c-1.4-0.2-3.3-1-4.4-1.8c-1.1-0.8-2.2-1.9-2.8-2.8c-1.6-2.5-2.4-5.8-2.6-7.9c-0.2-1.6-0.3-3.6-0.3-6.1c0-1.5,0-3.2,0.1-4.7
		c0-0.6,0-1.3,0-1.9c-0.1,0.1-0.3,0.2-0.4,0.4c-1.1,0.7-2.8,2.6-4.4,4.4c-0.4,0.5-0.9,1-1.3,1.5c-1.7,1.9-3.9,5.8-4.6,7.2
		c-1.7,3.2-2,6.1-0.9,8c0.6,1,1.6,1.6,2.7,1.6c0.2,0,0.5,0,0.7-0.1c2.2-0.5,4.1-3.6,4.8-4.6c0.2-0.3,0.2-0.3,0.3-0.3h0l0,0v0
		c0,2.3-0.8,4.3-2.2,5.7c-1.2,1.3-2.9,2-4.7,2c-2.5,0-5.8-1.6-6.5-6.1h0c-1.6-8.8,4.7-18.7,11.6-24.5c1.9-1.6,4.5-3.3,4.5-3.3h0
		c0,0,0,0,0,0c0,0,0,0,0.1,0l0,0l0,0c0,0,0,0,0,0c0.3,0,1.5,1.1,2.4,2.1c1,1.1,2.4,3.4,3.4,6.5c0.3,1,0.6,2.1,0.8,3.2
		c0.4,2.1,0.6,4.8,0.7,7.4c0.1,1,0.1,2,0.2,2.9c0.1,1.8,0.4,3.6,0.8,4.7c0.3,1,0.6,1.7,0.9,2.4c0.4,0.9,1,1.7,2.3,2.8
		c0.1,0.1,0.2,0.1,0.3,0.2c0.4,0.2,0.7,0.4,1,0.5c0.6,0.2,1.2,0.1,1.7-0.1c0.2-0.1,0.3-0.2,0.3-0.2l0.1,0.1
		C55.1,51,55,51.2,54.8,51.3z"/>
</g>
</svg>
