<?xml version="1.0" encoding="utf-8"?>
<!-- Generator: Adobe Illustrator 22.0.1, SVG Export Plug-In . SVG Version: 6.00 Build 0)  -->
<svg version="1.1" id="图层_1" xmlns="http://www.w3.org/2000/svg" xmlns:xlink="http://www.w3.org/1999/xlink" x="0px" y="0px"
	 viewBox="0 0 300 80" style="enable-background:new 0 0 300 80;" xml:space="preserve">
<style type="text/css">
	.st0{fill:url(#SVGID_1_);}
	.st1{fill:#218FF0;}
	.st2{fill:#FFFFFF;}
	.st3{fill:url(#SVGID_2_);}
</style>
<g>
	
		<linearGradient id="SVGID_1_" gradientUnits="userSpaceOnUse" x1="11.3" y1="40" x2="73.9" y2="40" gradientTransform="matrix(1 0 0 -1 0 80)">
		<stop  offset="0" style="stop-color:#3E5AE5"/>
		<stop  offset="1" style="stop-color:#218FF0"/>
	</linearGradient>
	<path class="st0" d="M67.9,18.5L48.6,7.3c-3.7-2.1-8.3-2.1-12,0L17.3,18.5c-3.7,2.1-6,6.1-6,10.4v22.3c0,4.3,2.3,8.2,6,10.4
		l19.3,11.1c3.7,2.1,8.3,2.1,12,0l19.3-11.1c3.7-2.1,6-6.1,6-10.4V28.9C73.9,24.6,71.6,20.6,67.9,18.5z"/>
	<path class="st1" d="M140.3,58.4v-36c0-0.3,0.2-0.5,0.5-0.5h29c2.7,0,4.7,0.6,5.9,1.7s1.8,2.9,1.8,5.4v8.2
		c-0.1,2.8-0.6,4.2-1.8,5.4c-1.6,1.5-6,1.7-6,1.7l8.7,14.3h-6.9c-0.7,0-1.4-0.4-1.8-1l-7.2-13.4h-16V58c0,0.3-0.2,0.5-0.5,0.5
		L140.3,58.4L140.3,58.4z M167.4,26.6h-21v12.8h21c1.5,0,2.6-0.3,3.1-0.8c0.6-0.6,0.8-1.5,0.8-2.9v-5.3c0-1.4-0.3-2.4-0.8-2.9
		C169.9,26.9,168.9,26.6,167.4,26.6z"/>
	<path class="st1" d="M188.6,58V23.9c0-1.1,0.9-2,2-2h3.5c0.3,0,0.5,0.2,0.5,0.5v34.1c0,1.1-0.9,2-2,2h-3.5
		C188.8,58.5,188.6,58.2,188.6,58z"/>
	<path class="st1" d="M205.7,56.5v-17c0-1.1,0.9-2,2-2h32.6c0.3,0,0.5,0.2,0.5,0.5v3.9c0,0.3-0.2,0.5-0.5,0.5h-28.4v11.1h28.4
		c0.3,0,0.5,0.2,0.5,0.5v4c0,0.3-0.2,0.5-0.5,0.5h-32.5C206.6,58.5,205.7,57.6,205.7,56.5z"/>
	<path class="st1" d="M281.1,26.9h-21.9c-1.1,0-2,0.9-2,2v6.2c0,1.1,0.9,2,2,2h21c3.3,0,5.5,0.6,6.7,1.8s1.8,3.5,1.8,6.8v4.1
		c0,3.4-0.6,5.7-1.8,6.9c-1.2,1.2-3.4,1.8-6.7,1.8h-21.3c-3.3,0-5.6-0.6-6.8-1.8s-1.8-3.5-1.8-6.8V48c0-0.3,0.2-0.5,0.5-0.5h4.7
		c0.3,0,0.5,0.2,0.5,0.5v3.3c0,1.1,0.9,2,2,2h23.2c1.1,0,2-0.9,2-2v-7c0-1.1-0.9-2-2-2h-21c-3.3,0-5.6-0.6-6.7-1.8
		c-1.2-1.2-1.8-3.5-1.8-6.8v-3.2c0-3.3,0.6-5.6,1.8-6.8c1.2-1.2,3.4-1.8,6.7-1.8h19.5c3.3,0,5.5,0.6,6.7,1.8
		c1.2,1.2,1.9,3.3,1.9,6.2v1.7c0,0.3-0.2,0.5-0.5,0.5h-4.2c-0.3,0-0.5-0.2-0.5-0.5v-2.8C283.1,27.8,282.2,26.9,281.1,26.9z"/>
	<path class="st1" d="M240.3,25.9h-34.1c-0.3,0-0.5-0.2-0.5-0.5v-3c0-0.3,0.2-0.5,0.5-0.5h34.1c0.3,0,0.5,0.2,0.5,0.5v3
		C240.8,25.7,240.5,25.9,240.3,25.9z"/>
	<path class="st1" d="M112.7,21.9L112.7,21.9L112.7,21.9L112.7,21.9L112.7,21.9h-9L87.8,58.5h7.9c0.7,0,1.4-0.4,1.8-1l12.8-29.8
		l16.5,30.6c0.1,0.2,0.3,0.3,0.4,0.3h5.2L112.7,21.9z"/>
	<circle class="st2" cx="42.6" cy="40" r="23"/>
	
		<linearGradient id="SVGID_2_" gradientUnits="userSpaceOnUse" x1="27.7985" y1="42.3" x2="59.1739" y2="42.3" gradientTransform="matrix(1 0 0 -1 0 80)">
		<stop  offset="0" style="stop-color:#3E5AE5"/>
		<stop  offset="1" style="stop-color:#218FF0"/>
	</linearGradient>
	<path class="st3" d="M58.8,53.3L58.8,53.3c-0.3,0.2-0.7,0.5-1.2,0.6c-0.5,0.2-1.2,0.3-2,0.3c-0.4,0-0.8,0-1.2-0.1
		c-1.4-0.2-3.3-1-4.4-1.8s-2.2-1.9-2.8-2.8c-1.6-2.5-2.4-5.8-2.6-7.9c-0.2-1.6-0.3-3.6-0.3-6.1c0-1.5,0-3.2,0.1-4.7
		c0-0.6,0-1.3,0-1.9c-0.1,0.1-0.3,0.2-0.4,0.4c-1.1,0.7-2.8,2.6-4.4,4.4c-0.4,0.5-0.9,1-1.3,1.5c-1.7,1.9-3.9,5.8-4.6,7.2
		c-1.7,3.2-2,6.1-0.9,8c0.6,1,1.6,1.6,2.7,1.6c0.2,0,0.5,0,0.7-0.1c2.2-0.5,4.1-3.6,4.8-4.6c0.2-0.3,0.2-0.3,0.3-0.3l0,0l0,0l0,0
		c0,2.3-0.8,4.3-2.2,5.7c-1.2,1.3-2.9,2-4.7,2c-2.5,0-5.8-1.6-6.5-6.1l0,0c-1.4-9,4.9-18.8,11.8-24.6c1.9-1.6,4.5-3.3,4.5-3.3l0,0
		l0,0c0,0,0,0,0.1,0l0,0l0,0l0,0c0.3,0,1.5,1.1,2.4,2.1c1,1.1,2.4,3.4,3.4,6.5c0.3,1,0.6,2.1,0.8,3.2c0.4,2.1,0.6,4.8,0.7,7.4
		c0.1,1,0.1,2,0.2,2.9c0.1,1.8,0.4,3.6,0.8,4.7c0.3,1,0.6,1.7,0.9,2.4c0.4,0.9,1,1.7,2.3,2.8c0.1,0.1,0.2,0.1,0.3,0.2
		c0.4,0.2,0.7,0.4,1,0.5C57.7,53.6,58.3,53.5,58.8,53.3c0.2-0.1,0.3-0.2,0.3-0.2l0.1,0.1C59.2,53,59.1,53.2,58.8,53.3z"/>
</g>
</svg>
