<?xml version="1.0" encoding="UTF-8"?>
<svg width="278px" height="70px" viewBox="0 0 278 70" version="1.1" xmlns="http://www.w3.org/2000/svg" xmlns:xlink="http://www.w3.org/1999/xlink">
    <!-- Generator: Sketch 52.2 (67145) - http://www.bohemiancoding.com/sketch -->
    <title>aries-group</title>
    <desc>Created with Sketch.</desc>
    <g id="Page-1" stroke="none" stroke-width="1" fill="none" fill-rule="evenodd">
        <g id="aries-group" fill="#FFFFFF">
            <path d="M56.9,13.5 C60.6,15.6 62.9,19.6 62.9,23.9 L62.9,46.2 C62.9,50.5 60.6,54.5 56.9,56.6 L37.6,67.7 C33.9,69.8 29.3,69.8 25.6,67.7 L6.3,56.6 C2.6,54.4 0.3,50.5 0.3,46.2 L0.3,23.9 C0.3,19.6 2.6,15.6 6.3,13.5 L25.6,2.3 C29.3,0.2 33.9,0.2 37.6,2.3 L56.9,13.5 Z M47.8,48.3 C48.1,48.2 48.2,48 48.2,48.2 L48.1,48.1 C48.1,48.1 48,48.2 47.8,48.3 C47.3,48.5 46.7,48.6 46.1,48.4 C45.8,48.3 45.5,48.1 45.1,47.9 C45,47.8 44.9,47.8 44.8,47.7 C43.5,46.6 42.9,45.8 42.5,44.9 C42.2,44.2 41.9,43.5 41.6,42.5 C41.2,41.4 40.9,39.6 40.8,37.8 C40.7,36.9 40.7,35.9 40.6,34.9 C40.5,32.3 40.3,29.6 39.9,27.5 C39.7,26.4 39.4,25.3 39.1,24.3 C38.1,21.2 36.7,18.9 35.7,17.8 C34.8,16.8 33.6,15.7 33.3,15.7 C33.2,15.7 33.2,15.7 33.2,15.7 C33.2,15.7 30.6,17.4 28.7,19 C21.8,24.8 15.5,34.6 16.9,43.6 C17.6,48.1 20.9,49.7 23.4,49.7 C25.2,49.7 26.9,49 28.1,47.7 C29.5,46.3 30.3,44.3 30.3,42 C30.2,42 30.2,42 30,42.3 C29.3,43.3 27.4,46.4 25.2,46.9 C25,47 24.7,47 24.5,47 C23.4,47 22.4,46.4 21.8,45.4 C20.7,43.5 21,40.6 22.7,37.4 C23.4,36 25.6,32.1 27.3,30.2 C27.7,29.7 28.2,29.2 28.6,28.7 C30.2,26.9 31.9,25 33,24.3 C33.1,24.1 33.3,24 33.4,23.9 C33.4,24.5 33.4,25.2 33.4,25.8 C33.3,27.3 33.3,29 33.3,30.5 C33.3,33 33.4,35 33.6,36.6 C33.8,38.7 34.6,42 36.2,44.5 C36.8,45.4 37.9,46.5 39,47.3 C40.1,48.1 42,48.9 43.4,49.1 C43.8,49.2 44.2,49.2 44.6,49.2 C45.4,49.2 46.1,49.1 46.6,48.9 C47.1,48.8 47.5,48.5 47.8,48.3 Z" id="合并形状"></path>
            <path d="M129.3,53.4 L129.3,17.4 C129.3,17.1 129.5,16.9 129.8,16.9 L158.8,16.9 C161.5,16.9 163.5,17.5 164.7,18.6 C165.9,19.7 166.5,21.5 166.5,24 L166.5,32.2 C166.4,35 165.9,36.4 164.7,37.6 C163.1,39.1 158.7,39.3 158.7,39.3 L167.4,53.6 L160.5,53.6 C159.8,53.6 159.1,53.2 158.7,52.6 L151.5,39.2 L135.5,39.2 L135.5,53 C135.5,53.3 135.3,53.5 135,53.5 L129.3,53.4 Z M156.4,21.6 L135.4,21.6 L135.4,34.4 L156.4,34.4 C157.9,34.4 159,34.1 159.5,33.6 C160.1,33 160.3,32.1 160.3,30.7 L160.3,25.4 C160.3,24 160,23 159.5,22.5 C158.9,21.9 157.9,21.6 156.4,21.6 Z" id="形状"></path>
            <path d="M177.6,53 L177.6,18.9 C177.6,17.8 178.5,16.9 179.6,16.9 L183.1,16.9 C183.4,16.9 183.6,17.1 183.6,17.4 L183.6,51.5 C183.6,52.6 182.7,53.5 181.6,53.5 L178.1,53.5 C177.8,53.5 177.6,53.2 177.6,53 Z" id="路径"></path>
            <path d="M194.7,51.5 L194.7,34.5 C194.7,33.4 195.6,32.5 196.7,32.5 L229.3,32.5 C229.6,32.5 229.8,32.7 229.8,33 L229.8,36.9 C229.8,37.2 229.6,37.4 229.3,37.4 L200.9,37.4 L200.9,48.5 L229.3,48.5 C229.6,48.5 229.8,48.7 229.8,49 L229.8,53 C229.8,53.3 229.6,53.5 229.3,53.5 L196.8,53.5 C195.6,53.5 194.7,52.6 194.7,51.5 Z" id="路径"></path>
            <path d="M270.1,21.9 L248.2,21.9 C247.1,21.9 246.2,22.8 246.2,23.9 L246.2,30.1 C246.2,31.2 247.1,32.1 248.2,32.1 L269.2,32.1 C272.5,32.1 274.7,32.7 275.9,33.9 C277.1,35.1 277.7,37.4 277.7,40.7 L277.7,44.8 C277.7,48.2 277.1,50.5 275.9,51.7 C274.7,52.9 272.5,53.5 269.2,53.5 L247.9,53.5 C244.6,53.5 242.3,52.9 241.1,51.7 C239.9,50.5 239.3,48.2 239.3,44.9 L239.3,43 C239.3,42.7 239.5,42.5 239.8,42.5 L244.5,42.5 C244.8,42.5 245,42.7 245,43 L245,46.3 C245,47.4 245.9,48.3 247,48.3 L270.2,48.3 C271.3,48.3 272.2,47.4 272.2,46.3 L272.2,39.3 C272.2,38.2 271.3,37.3 270.2,37.3 L249.2,37.3 C245.9,37.3 243.6,36.7 242.5,35.5 C241.3,34.3 240.7,32 240.7,28.7 L240.7,25.5 C240.7,22.2 241.3,19.9 242.5,18.7 C243.7,17.5 245.9,16.9 249.2,16.9 L268.7,16.9 C272,16.9 274.2,17.5 275.4,18.7 C276.6,19.9 277.3,22 277.3,24.9 L277.3,26.6 C277.3,26.9 277.1,27.1 276.8,27.1 L272.6,27.1 C272.3,27.1 272.1,26.9 272.1,26.6 L272.1,23.8 C272.1,22.8 271.2,21.9 270.1,21.9 Z" id="路径"></path>
            <path d="M229.3,20.9 L195.2,20.9 C194.9,20.9 194.7,20.7 194.7,20.4 L194.7,17.4 C194.7,17.1 194.9,16.9 195.2,16.9 L229.3,16.9 C229.6,16.9 229.8,17.1 229.8,17.4 L229.8,20.4 C229.8,20.7 229.5,20.9 229.3,20.9 Z" id="路径"></path>
            <path d="M101.7,16.9 L92.7,16.9 L76.8,53.5 L84.7,53.5 C85.4,53.5 86.1,53.1 86.5,52.5 L99.3,22.7 L115.8,53.3 C115.9,53.5 116.1,53.6 116.2,53.6 L121.4,53.6 L101.7,16.9 Z" id="路径"></path>
        </g>
    </g>
</svg>