<?xml version="1.0" encoding="UTF-8"?>
<svg width="63px" height="70px" viewBox="0 0 63 70" version="1.1" xmlns="http://www.w3.org/2000/svg" xmlns:xlink="http://www.w3.org/1999/xlink">
    <!-- Generator: Sketch 52.2 (67145) - http://www.bohemiancoding.com/sketch -->
    <title>aries</title>
    <desc>Created with Sketch.</desc>
    <g id="Page-1" stroke="none" stroke-width="1" fill="none" fill-rule="evenodd">
        <g id="aries" fill="#FFFFFF">
            <path d="M56.8,13.5 C60.5,15.6 62.8,19.6 62.8,23.9 L62.8,46.2 C62.8,50.5 60.5,54.5 56.8,56.6 L37.5,67.7 C33.8,69.8 29.2,69.8 25.5,67.7 L6.2,56.6 C2.5,54.4 0.2,50.5 0.2,46.2 L0.2,23.9 C0.2,19.6 2.5,15.6 6.2,13.5 L25.5,2.3 C29.2,0.2 33.8,0.2 37.5,2.3 L56.8,13.5 Z M47.8,48.3 C48,48.2 48.1,48 48,48.3 L47.9,48.2 C47.9,48.2 47.8,48.3 47.6,48.4 C47.1,48.6 46.5,48.7 45.9,48.5 C45.6,48.4 45.3,48.2 44.9,48 C44.8,47.9 44.7,47.9 44.6,47.8 C43.3,46.7 42.7,45.9 42.3,45 C42,44.3 41.7,43.6 41.4,42.6 C41,41.5 40.7,39.7 40.6,37.9 C40.5,37 40.5,36 40.4,35 C40.3,32.4 40.1,29.7 39.7,27.6 C39.5,26.5 39.2,25.4 38.9,24.4 C37.9,21.3 36.5,19 35.5,17.9 C34.6,16.9 33.4,15.8 33.1,15.8 C33,15.8 33,15.8 33,15.8 C33,15.8 30.4,17.5 28.5,19.1 C21.6,24.9 15.3,34.8 16.9,43.6 C17.6,48.1 20.9,49.7 23.4,49.7 C25.2,49.7 26.9,49 28.1,47.7 C29.5,46.3 30.3,44.3 30.3,42 C30.2,42 30.2,42 30,42.3 C29.3,43.3 27.4,46.4 25.2,46.9 C25,47 24.7,47 24.5,47 C23.4,47 22.4,46.4 21.8,45.4 C20.7,43.5 21,40.6 22.7,37.4 C23.4,36 25.6,32.1 27.3,30.2 C27.7,29.7 28.2,29.2 28.6,28.7 C30.2,26.9 31.9,25 33,24.3 C33.1,24.1 33.3,24 33.4,23.9 C33.4,24.5 33.4,25.2 33.4,25.8 C33.3,27.3 33.3,29 33.3,30.5 C33.3,33 33.4,35 33.6,36.6 C33.8,38.7 34.6,42 36.2,44.5 C36.8,45.4 37.9,46.5 39,47.3 C40.1,48.1 42,48.9 43.4,49.1 C43.8,49.2 44.2,49.2 44.6,49.2 C45.4,49.2 46.1,49.1 46.6,48.9 C47.1,48.8 47.5,48.5 47.8,48.3 Z" id="合并形状"></path>
        </g>
    </g>
</svg>